<svg width="259" height="217" viewBox="0 0 259 217" fill="none" xmlns="http://www.w3.org/2000/svg">
<path d="M84.0072 24.1818L92.2308 10.0646L95.2462 26.5118L105.937 28.8418L109.775 48.8526L92.2308 68.5893L99.2209 38.5731L84.0072 24.1818Z" fill="url(#paint0_linear_99_64)"/>
<path d="M137.101 0L153.094 3.33787L138.444 11.3991L139.614 22.278L121.844 32.2461L97.5723 21.8432L128.259 18.9836L137.101 0Z" fill="url(#paint1_linear_99_64)"/>
<path d="M177.237 43.7781L179.064 60.0135L166.828 48.6158L156.86 53.1263L141.838 39.3601L144.136 13.0535L156.441 41.31L177.237 43.7781Z" fill="url(#paint2_linear_99_64)"/>
<path d="M148.582 94.6745L133.766 101.561L140.69 86.3401L133.248 78.3189L141.534 59.7041L167.209 53.5323L144.32 74.1707L148.582 94.6745Z" fill="url(#paint3_linear_99_64)"/>
<path d="M91.0645 83.8375L79.5568 72.2403L96.224 73.5846L101.242 63.8613L121.564 65.3335L136.087 87.3877L108.903 72.867L91.0645 83.8375Z" fill="url(#paint4_linear_99_64)"/>
<path d="M116.353 87.3665C116.353 90.9999 113.408 93.9454 109.775 93.9454C106.141 93.9454 103.196 90.9999 103.196 87.3665C103.196 83.7331 106.141 80.7876 109.775 80.7876C113.408 80.7876 116.353 83.7331 116.353 87.3665Z" fill="url(#paint5_linear_99_64)"/>
<path d="M163.776 76.9499C163.776 80.5834 160.831 83.5288 157.197 83.5288C153.564 83.5288 150.618 80.5834 150.618 76.9499C150.618 73.3165 153.564 70.371 157.197 70.371C160.831 70.371 163.776 73.3165 163.776 76.9499Z" fill="url(#paint6_linear_99_64)"/>
<path d="M169.533 28.7048C169.533 32.3382 166.587 35.2836 162.954 35.2836C159.32 35.2836 156.375 32.3382 156.375 28.7048C156.375 25.0713 159.32 22.1259 162.954 22.1259C166.587 22.1259 169.533 25.0713 169.533 28.7048Z" fill="url(#paint7_linear_99_64)"/>
<path d="M127.866 8.96808C127.866 12.6015 124.921 15.547 121.288 15.547C117.654 15.547 114.709 12.6015 114.709 8.96808C114.709 5.33466 117.654 2.38919 121.288 2.38919C124.921 2.38919 127.866 5.33466 127.866 8.96808Z" fill="url(#paint8_linear_99_64)"/>
<path d="M92.5049 43.2331C92.5049 46.8666 89.5595 49.812 85.9261 49.812C82.2926 49.812 79.3472 46.8666 79.3472 43.2331C79.3472 39.5997 82.2926 36.6542 85.9261 36.6542C89.5595 36.6542 92.5049 39.5997 92.5049 43.2331Z" fill="url(#paint9_linear_99_64)"/>
<path d="M222.312 186.779V145.798H231.769V162.108H249.861V145.798H258.411V186.779H249.861V169.646H231.769V186.779H222.312Z" fill="white"/>
<path d="M119.242 153.199V145.798H148.436V153.199H138.157V186.779H129.522V153.199H119.242Z" fill="white"/>
<path d="M9.18303 186.916H0L13.0207 145.798L25.4932 171.154L39.3363 145.798L52.0829 186.916H42.4887L36.321 167.042L25.7673 186.916L14.8025 167.042L9.18303 186.916Z" fill="white"/>
<path d="M185.127 187.611C179.313 187.611 174.312 185.647 170.122 181.719C165.932 177.739 163.837 172.554 163.837 166.164C163.837 159.775 166.011 154.59 170.358 150.61C174.757 146.577 180.099 144.561 186.384 144.561C192.668 144.561 197.984 146.734 202.331 151.081L197.146 157.444C193.533 154.302 189.893 152.731 186.227 152.731C182.56 152.731 179.366 153.961 176.642 156.423C173.971 158.832 172.636 161.975 172.636 165.85C172.636 169.673 173.971 172.92 176.642 175.591C179.313 178.263 182.587 179.598 186.462 179.598C190.39 179.598 194.083 177.817 197.539 174.256L202.724 179.912C197.644 185.045 191.778 187.611 185.127 187.611Z" fill="white"/>
<path fill-rule="evenodd" clip-rule="evenodd" d="M67.7077 186.779L89.2262 145.935L108.963 186.779H99.5057L97.4498 181.708H79.632L77.302 186.779H67.7077ZM83.1955 175.266H94.2974L89.2262 163.479L83.1955 175.266Z" fill="white"/>
<path d="M27.2394 216.098L31.4162 203.756C31.6674 203.044 32.0128 202.5 32.4525 202.123C32.8922 201.725 33.6459 201.526 34.7136 201.526C35.6767 201.526 36.3885 201.704 36.8491 202.06C37.3097 202.416 37.676 202.981 37.9482 203.756L42.2192 216.098H39.6126L38.2623 212.109H30.4112L29.1237 216.098H27.2394ZM30.8195 211.01H37.8226L35.7499 204.698C35.6452 204.384 35.5092 204.112 35.3417 203.881C35.1742 203.63 34.8392 203.505 34.3367 203.505C33.7715 203.505 33.3946 203.63 33.2062 203.881C33.0387 204.133 32.9131 204.405 32.8294 204.698L30.8195 211.01ZM59.4497 201.652V214.716H69.0907V216.098H57.063V202.688C57.063 202.458 57.0734 202.269 57.0944 202.123C57.1153 201.976 57.1886 201.861 57.3142 201.777C57.4398 201.694 57.6387 201.652 57.9109 201.652H59.4497ZM83.6484 216.098C83.6484 213.857 83.6484 211.617 83.6484 209.377C83.6484 207.137 83.6484 204.897 83.6484 202.657C83.6484 202.426 83.6589 202.248 83.6798 202.123C83.7217 201.976 83.795 201.861 83.8997 201.777C84.0253 201.694 84.2242 201.652 84.4963 201.652H86.0665V216.098H83.6484ZM100.832 216.098L105.008 203.756C105.26 203.044 105.605 202.5 106.045 202.123C106.484 201.725 107.238 201.526 108.306 201.526C109.269 201.526 109.981 201.704 110.441 202.06C110.902 202.416 111.268 202.981 111.54 203.756L115.811 216.098H113.205L111.854 212.109H104.003L102.716 216.098H100.832ZM104.412 211.01H111.415L109.342 204.698C109.237 204.384 109.101 204.112 108.934 203.881C108.766 203.63 108.431 203.505 107.929 203.505C107.364 203.505 106.987 203.63 106.798 203.881C106.631 204.133 106.505 204.405 106.422 204.698L104.412 211.01ZM130.655 216.098V202.939C130.655 202.374 130.697 202.018 130.781 201.872C130.885 201.725 131.168 201.652 131.629 201.652H133.733L143.091 213.617L143.185 213.68V201.652H145.038C145.017 201.673 144.996 201.756 144.975 201.903C144.954 202.029 144.944 202.175 144.944 202.343C144.944 202.489 144.944 202.636 144.944 202.782V214.904C144.944 215.449 144.871 215.784 144.724 215.909C144.599 216.035 144.316 216.098 143.876 216.098H141.929L132.477 204.038L132.445 203.913V216.098H130.655ZM163.128 214.684H173.648C173.648 215.019 173.638 215.281 173.617 215.47C173.596 215.658 173.543 215.805 173.46 215.909C173.376 215.993 173.24 216.045 173.051 216.066C172.884 216.087 172.633 216.098 172.298 216.098H159.893V214.59C159.914 214.59 160.092 214.402 160.427 214.025C160.762 213.648 161.212 213.146 161.777 212.518C162.343 211.869 162.96 211.167 163.63 210.413C164.321 209.639 165.022 208.854 165.734 208.058C166.446 207.263 167.105 206.519 167.713 205.829C168.341 205.117 168.875 204.52 169.314 204.038C169.545 203.808 169.743 203.609 169.911 203.442C170.078 203.253 170.194 203.128 170.256 203.065H160.458C160.458 202.709 160.469 202.437 160.49 202.248C160.511 202.039 160.584 201.893 160.71 201.809C160.856 201.704 161.086 201.652 161.4 201.652H173.46C173.46 201.673 173.449 201.767 173.428 201.934C173.428 202.102 173.397 202.322 173.334 202.594C173.292 202.845 173.198 203.117 173.051 203.41C172.905 203.683 172.695 203.944 172.423 204.195L163.442 214.465L163.128 214.684ZM186.446 216.098L190.622 203.756C190.874 203.044 191.219 202.5 191.659 202.123C192.098 201.725 192.852 201.526 193.92 201.526C194.883 201.526 195.595 201.704 196.055 202.06C196.516 202.416 196.882 202.981 197.154 203.756L201.425 216.098H198.819L197.468 212.109H189.617L188.33 216.098H186.446ZM190.026 211.01H197.029L194.956 204.698C194.851 204.384 194.715 204.112 194.548 203.881C194.38 203.63 194.045 203.505 193.543 203.505C192.978 203.505 192.601 203.63 192.412 203.881C192.245 204.133 192.119 204.405 192.036 204.698L190.026 211.01ZM215.296 213.899C215.735 214.192 216.301 214.412 216.991 214.559C217.703 214.684 218.436 214.768 219.19 214.81C219.964 214.831 220.634 214.841 221.2 214.841C221.409 214.841 221.65 214.841 221.922 214.841C222.194 214.841 222.435 214.831 222.644 214.81C223.482 214.789 224.214 214.695 224.842 214.527C225.471 214.339 225.963 214.035 226.318 213.617C226.674 213.177 226.852 212.559 226.852 211.764C226.852 210.801 226.601 210.173 226.099 209.88C225.596 209.587 224.863 209.44 223.9 209.44C223.586 209.44 223.251 209.44 222.895 209.44C222.539 209.44 222.163 209.44 221.765 209.44C221.367 209.44 220.906 209.44 220.383 209.44C219.797 209.44 219.2 209.419 218.593 209.377C217.986 209.314 217.431 209.178 216.929 208.969C216.426 208.739 216.028 208.393 215.735 207.933C215.442 207.451 215.296 206.771 215.296 205.891C215.296 204.865 215.474 204.059 215.829 203.473C216.206 202.887 216.73 202.458 217.4 202.186C218.07 201.913 218.834 201.736 219.692 201.652C220.571 201.568 221.503 201.526 222.487 201.526C223.073 201.526 223.733 201.537 224.466 201.558C225.219 201.578 225.921 201.631 226.57 201.715C227.24 201.798 227.763 201.945 228.14 202.154C228.475 202.196 228.726 202.301 228.894 202.468C229.082 202.636 229.176 202.845 229.176 203.096C229.176 203.18 229.176 203.285 229.176 203.41C229.176 203.515 229.176 203.62 229.176 203.724C229.176 203.829 229.176 203.902 229.176 203.944C228.988 203.735 228.674 203.567 228.234 203.442C227.794 203.316 227.292 203.222 226.727 203.159C226.182 203.075 225.648 203.023 225.125 203.002C224.602 202.96 224.172 202.939 223.838 202.939H221.985C221.231 202.939 220.53 203.002 219.881 203.128C219.232 203.253 218.708 203.515 218.31 203.913C217.934 204.29 217.745 204.897 217.745 205.734C217.745 206.383 217.871 206.865 218.122 207.179C218.394 207.493 218.771 207.702 219.253 207.807C219.734 207.891 220.31 207.933 220.98 207.933C221.796 207.933 222.519 207.933 223.147 207.933C223.775 207.933 224.288 207.933 224.685 207.933C225.607 207.933 226.423 208.016 227.135 208.184C227.847 208.33 228.402 208.676 228.799 209.22C229.197 209.744 229.396 210.571 229.396 211.701C229.396 212.811 229.145 213.69 228.642 214.339C228.161 214.988 227.491 215.449 226.632 215.721C225.795 215.993 224.832 216.16 223.743 216.223C223.22 216.244 222.717 216.255 222.236 216.255C221.754 216.276 221.252 216.276 220.729 216.255C220.247 216.255 219.692 216.234 219.064 216.192C218.436 216.15 217.829 216.087 217.243 216.003C216.677 215.899 216.206 215.752 215.829 215.564C215.474 215.354 215.296 215.082 215.296 214.747V213.899Z" fill="white" fill-opacity="0.5"/>
<defs>
<linearGradient id="paint0_linear_99_64" x1="79.3472" y1="50.7123" x2="179.127" y2="50.7123" gradientUnits="userSpaceOnUse">
<stop stop-color="#FF0073"/>
<stop offset="0.501326" stop-color="#0B99FB" stop-opacity="0.84"/>
<stop offset="1" stop-color="#15F2DA"/>
</linearGradient>
<linearGradient id="paint1_linear_99_64" x1="79.3472" y1="50.7123" x2="179.127" y2="50.7123" gradientUnits="userSpaceOnUse">
<stop stop-color="#FF0073"/>
<stop offset="0.501326" stop-color="#0B99FB" stop-opacity="0.84"/>
<stop offset="1" stop-color="#15F2DA"/>
</linearGradient>
<linearGradient id="paint2_linear_99_64" x1="79.3472" y1="50.7123" x2="179.127" y2="50.7123" gradientUnits="userSpaceOnUse">
<stop stop-color="#FF0073"/>
<stop offset="0.501326" stop-color="#0B99FB" stop-opacity="0.84"/>
<stop offset="1" stop-color="#15F2DA"/>
</linearGradient>
<linearGradient id="paint3_linear_99_64" x1="79.3472" y1="50.7123" x2="179.127" y2="50.7123" gradientUnits="userSpaceOnUse">
<stop stop-color="#FF0073"/>
<stop offset="0.501326" stop-color="#0B99FB" stop-opacity="0.84"/>
<stop offset="1" stop-color="#15F2DA"/>
</linearGradient>
<linearGradient id="paint4_linear_99_64" x1="79.3472" y1="50.7123" x2="179.127" y2="50.7123" gradientUnits="userSpaceOnUse">
<stop stop-color="#FF0073"/>
<stop offset="0.501326" stop-color="#0B99FB" stop-opacity="0.84"/>
<stop offset="1" stop-color="#15F2DA"/>
</linearGradient>
<linearGradient id="paint5_linear_99_64" x1="79.3472" y1="50.7123" x2="179.127" y2="50.7123" gradientUnits="userSpaceOnUse">
<stop stop-color="#FF0073"/>
<stop offset="0.501326" stop-color="#0B99FB" stop-opacity="0.84"/>
<stop offset="1" stop-color="#15F2DA"/>
</linearGradient>
<linearGradient id="paint6_linear_99_64" x1="79.3472" y1="50.7123" x2="179.127" y2="50.7123" gradientUnits="userSpaceOnUse">
<stop stop-color="#FF0073"/>
<stop offset="0.501326" stop-color="#0B99FB" stop-opacity="0.84"/>
<stop offset="1" stop-color="#15F2DA"/>
</linearGradient>
<linearGradient id="paint7_linear_99_64" x1="79.3472" y1="50.7123" x2="179.127" y2="50.7123" gradientUnits="userSpaceOnUse">
<stop stop-color="#FF0073"/>
<stop offset="0.501326" stop-color="#0B99FB" stop-opacity="0.84"/>
<stop offset="1" stop-color="#15F2DA"/>
</linearGradient>
<linearGradient id="paint8_linear_99_64" x1="79.3472" y1="50.7123" x2="179.127" y2="50.7123" gradientUnits="userSpaceOnUse">
<stop stop-color="#FF0073"/>
<stop offset="0.501326" stop-color="#0B99FB" stop-opacity="0.84"/>
<stop offset="1" stop-color="#15F2DA"/>
</linearGradient>
<linearGradient id="paint9_linear_99_64" x1="79.3472" y1="50.7123" x2="179.127" y2="50.7123" gradientUnits="userSpaceOnUse">
<stop stop-color="#FF0073"/>
<stop offset="0.501326" stop-color="#0B99FB" stop-opacity="0.84"/>
<stop offset="1" stop-color="#15F2DA"/>
</linearGradient>
</defs>
</svg>
