<svg width="411" height="102" viewBox="0 0 411 102" fill="none" xmlns="http://www.w3.org/2000/svg">
<path d="M5.15541 24.1818L13.379 10.0646L16.3943 26.5118L27.085 28.8418L30.9227 48.8526L13.379 68.5893L20.3691 38.5731L5.15541 24.1818Z" fill="url(#paint0_linear_99_69)"/>
<path d="M58.2493 0L74.2425 3.33787L59.5926 11.3991L60.7625 22.278L42.9918 32.2461L18.7205 21.8432L49.4069 18.9836L58.2493 0Z" fill="url(#paint1_linear_99_69)"/>
<path d="M98.3853 43.7781L100.212 60.0135L87.9767 48.6158L78.008 53.1263L62.9863 39.3601L65.2846 13.0535L77.5893 41.31L98.3853 43.7781Z" fill="url(#paint2_linear_99_69)"/>
<path d="M69.7299 94.6745L54.9142 101.561L61.8381 86.3401L54.3963 78.3189L62.6817 59.7041L88.3571 53.5323L65.4685 74.1707L69.7299 94.6745Z" fill="url(#paint3_linear_99_69)"/>
<path d="M12.2127 83.8375L0.704946 72.2403L17.3722 73.5846L22.3898 63.8613L42.712 65.3335L57.2355 87.3877L30.0512 72.867L12.2127 83.8375Z" fill="url(#paint4_linear_99_69)"/>
<path d="M37.5016 87.3665C37.5016 90.9999 34.5561 93.9454 30.9227 93.9454C27.2893 93.9454 24.3438 90.9999 24.3438 87.3665C24.3438 83.7331 27.2893 80.7876 30.9227 80.7876C34.5561 80.7876 37.5016 83.7331 37.5016 87.3665Z" fill="url(#paint5_linear_99_69)"/>
<path d="M84.9245 76.9499C84.9245 80.5834 81.979 83.5288 78.3456 83.5288C74.7121 83.5288 71.7667 80.5834 71.7667 76.9499C71.7667 73.3165 74.7121 70.371 78.3456 70.371C81.979 70.371 84.9245 73.3165 84.9245 76.9499Z" fill="url(#paint6_linear_99_69)"/>
<path d="M90.681 28.7048C90.681 32.3382 87.7355 35.2836 84.1021 35.2836C80.4687 35.2836 77.5232 32.3382 77.5232 28.7048C77.5232 25.0713 80.4687 22.1259 84.1021 22.1259C87.7355 22.1259 90.681 25.0713 90.681 28.7048Z" fill="url(#paint7_linear_99_69)"/>
<path d="M49.0147 8.96808C49.0147 12.6015 46.0692 15.547 42.4358 15.547C38.8024 15.547 35.8569 12.6015 35.8569 8.96808C35.8569 5.33466 38.8024 2.38919 42.4358 2.38919C46.0692 2.38919 49.0147 5.33466 49.0147 8.96808Z" fill="url(#paint8_linear_99_69)"/>
<path d="M13.6531 43.2331C13.6531 46.8666 10.7077 49.812 7.07425 49.812C3.44083 49.812 0.495361 46.8666 0.495361 43.2331C0.495361 39.5997 3.44083 36.6542 7.07425 36.6542C10.7077 36.6542 13.6531 39.5997 13.6531 43.2331Z" fill="url(#paint9_linear_99_69)"/>
<path d="M374.405 57.23V16.249H383.863V32.5592H401.955V16.249H410.505V57.23H401.955V40.0975H383.863V57.23H374.405Z" fill="#594D4D"/>
<path d="M271.336 23.6503V16.249H300.53V23.6503H290.25V57.23H281.616V23.6503H271.336Z" fill="#594D4D"/>
<path d="M161.277 57.3671H152.094L165.114 16.249L177.587 41.6052L191.43 16.249L204.177 57.3671H194.582L188.415 37.4933L177.861 57.3671L166.896 37.4933L161.277 57.3671Z" fill="#594D4D"/>
<path d="M337.22 58.0623C331.407 58.0623 326.405 56.0983 322.216 52.1703C318.026 48.19 315.931 43.0051 315.931 36.6156C315.931 30.2261 318.104 25.0411 322.451 21.0608C326.851 17.0281 332.193 15.0117 338.477 15.0117C344.762 15.0117 350.078 17.1852 354.425 21.5321L349.24 27.8955C345.626 24.7531 341.986 23.1819 338.32 23.1819C334.654 23.1819 331.459 24.4127 328.736 26.8742C326.065 29.2833 324.73 32.4257 324.73 36.3013C324.73 40.1245 326.065 43.3717 328.736 46.0427C331.407 48.7137 334.68 50.0492 338.556 50.0492C342.484 50.0492 346.176 48.2685 349.633 44.7072L354.818 50.3635C349.738 55.496 343.872 58.0623 337.22 58.0623Z" fill="#594D4D"/>
<path fill-rule="evenodd" clip-rule="evenodd" d="M219.801 57.23L241.32 16.3861L261.057 57.23H251.599L249.544 52.1588H231.726L229.396 57.23H219.801ZM235.289 45.717H246.391L241.32 33.9298L235.289 45.717Z" fill="#594D4D"/>
<path d="M152.627 86.5488L156.804 74.207C157.055 73.4952 157.401 72.9509 157.84 72.574C158.28 72.1762 159.034 71.9774 160.102 71.9774C161.065 71.9774 161.776 72.1553 162.237 72.5112C162.698 72.8671 163.064 73.4324 163.336 74.207L167.607 86.5488H165.001L163.65 82.5605H155.799L154.512 86.5488H152.627ZM156.207 81.4614H163.211L161.138 75.1492C161.033 74.8351 160.897 74.563 160.73 74.3327C160.562 74.0814 160.227 73.9558 159.725 73.9558C159.159 73.9558 158.783 74.0814 158.594 74.3327C158.427 74.5839 158.301 74.8561 158.217 75.1492L156.207 81.4614ZM184.838 72.103V85.1671H194.479V86.5488H182.451V73.1393C182.451 72.909 182.461 72.7206 182.482 72.574C182.503 72.4275 182.577 72.3123 182.702 72.2286C182.828 72.1448 183.027 72.103 183.299 72.103H184.838ZM209.036 86.5488C209.036 84.3087 209.036 82.0685 209.036 79.8284C209.036 77.5882 209.036 75.3481 209.036 73.1079C209.036 72.8776 209.047 72.6996 209.068 72.574C209.11 72.4275 209.183 72.3123 209.288 72.2286C209.413 72.1448 209.612 72.103 209.884 72.103H211.454V86.5488H209.036ZM226.22 86.5488L230.396 74.207C230.648 73.4952 230.993 72.9509 231.433 72.574C231.872 72.1762 232.626 71.9774 233.694 71.9774C234.657 71.9774 235.369 72.1553 235.829 72.5112C236.29 72.8671 236.656 73.4324 236.928 74.207L241.199 86.5488H238.593L237.242 82.5605H229.391L228.104 86.5488H226.22ZM229.8 81.4614H236.803L234.73 75.1492C234.625 74.8351 234.489 74.563 234.322 74.3327C234.154 74.0814 233.819 73.9558 233.317 73.9558C232.752 73.9558 232.375 74.0814 232.186 74.3327C232.019 74.5839 231.893 74.8561 231.809 75.1492L229.8 81.4614ZM256.043 86.5488V73.3905C256.043 72.8253 256.085 72.4694 256.169 72.3228C256.273 72.1762 256.556 72.103 257.017 72.103H259.121L268.479 84.0679L268.573 84.1307V72.103H270.426C270.405 72.1239 270.384 72.2077 270.363 72.3542C270.342 72.4798 270.332 72.6264 270.332 72.7939C270.332 72.9404 270.332 73.087 270.332 73.2335V85.3555C270.332 85.8998 270.259 86.2348 270.112 86.3604C269.986 86.486 269.704 86.5488 269.264 86.5488H267.317L257.864 74.4897L257.833 74.3641V86.5488H256.043ZM288.516 85.1356H299.036C299.036 85.4706 299.025 85.7323 299.005 85.9207C298.984 86.1092 298.931 86.2557 298.847 86.3604C298.764 86.4441 298.628 86.4965 298.439 86.5174C298.272 86.5384 298.021 86.5488 297.686 86.5488H285.281V85.0414C285.302 85.0414 285.48 84.853 285.815 84.4762C286.15 84.0993 286.6 83.5968 287.165 82.9688C287.73 82.3198 288.348 81.6184 289.018 80.8647C289.709 80.0901 290.41 79.305 291.122 78.5094C291.834 77.7138 292.493 76.9706 293.101 76.2797C293.729 75.5679 294.262 74.9712 294.702 74.4897C294.932 74.2594 295.131 74.0605 295.299 73.893C295.466 73.7046 295.581 73.579 295.644 73.5162H285.846C285.846 73.1602 285.857 72.8881 285.878 72.6996C285.899 72.4903 285.972 72.3437 286.097 72.26C286.244 72.1553 286.474 72.103 286.788 72.103H298.847C298.847 72.1239 298.837 72.2181 298.816 72.3856C298.816 72.5531 298.785 72.7729 298.722 73.0451C298.68 73.2963 298.586 73.5685 298.439 73.8616C298.293 74.1338 298.083 74.3955 297.811 74.6467L288.83 84.9158L288.516 85.1356ZM311.834 86.5488L316.01 74.207C316.262 73.4952 316.607 72.9509 317.047 72.574C317.486 72.1762 318.24 71.9774 319.308 71.9774C320.271 71.9774 320.983 72.1553 321.443 72.5112C321.904 72.8671 322.27 73.4324 322.542 74.207L326.813 86.5488H324.207L322.856 82.5605H315.005L313.718 86.5488H311.834ZM315.414 81.4614H322.417L320.344 75.1492C320.239 74.8351 320.103 74.563 319.936 74.3327C319.768 74.0814 319.433 73.9558 318.931 73.9558C318.366 73.9558 317.989 74.0814 317.8 74.3327C317.633 74.5839 317.507 74.8561 317.423 75.1492L315.414 81.4614ZM340.684 84.3505C341.123 84.6437 341.688 84.8635 342.379 85.01C343.091 85.1356 343.824 85.2194 344.578 85.2613C345.352 85.2822 346.022 85.2927 346.588 85.2927C346.797 85.2927 347.038 85.2927 347.31 85.2927C347.582 85.2927 347.823 85.2822 348.032 85.2613C348.87 85.2403 349.602 85.1461 350.23 84.9786C350.858 84.7902 351.35 84.4866 351.706 84.0679C352.062 83.6283 352.24 83.0106 352.24 82.2151C352.24 81.252 351.989 80.6239 351.487 80.3308C350.984 80.0377 350.251 79.8912 349.288 79.8912C348.974 79.8912 348.639 79.8912 348.283 79.8912C347.927 79.8912 347.551 79.8912 347.153 79.8912C346.755 79.8912 346.294 79.8912 345.771 79.8912C345.185 79.8912 344.588 79.8702 343.981 79.8284C343.374 79.7656 342.819 79.6295 342.317 79.4201C341.814 79.1898 341.416 78.8444 341.123 78.3838C340.83 77.9023 340.684 77.2218 340.684 76.3425C340.684 75.3167 340.862 74.5106 341.217 73.9244C341.594 73.3382 342.118 72.909 342.788 72.6368C343.458 72.3647 344.222 72.1867 345.08 72.103C345.959 72.0192 346.891 71.9774 347.875 71.9774C348.461 71.9774 349.121 71.9878 349.854 72.0088C350.607 72.0297 351.309 72.082 351.958 72.1658C352.628 72.2495 353.151 72.3961 353.528 72.6054C353.863 72.6473 354.114 72.752 354.281 72.9195C354.47 73.087 354.564 73.2963 354.564 73.5476C354.564 73.6313 354.564 73.736 354.564 73.8616C354.564 73.9663 354.564 74.071 354.564 74.1756C354.564 74.2803 354.564 74.3536 354.564 74.3955C354.376 74.1861 354.062 74.0186 353.622 73.893C353.182 73.7674 352.68 73.6732 352.115 73.6104C351.57 73.5266 351.036 73.4743 350.513 73.4533C349.99 73.4115 349.56 73.3905 349.225 73.3905H347.373C346.619 73.3905 345.918 73.4533 345.269 73.579C344.62 73.7046 344.096 73.9663 343.698 74.3641C343.321 74.7409 343.133 75.3481 343.133 76.1855C343.133 76.8345 343.259 77.316 343.51 77.6301C343.782 77.9441 344.159 78.1535 344.64 78.2582C345.122 78.3419 345.698 78.3838 346.368 78.3838C347.184 78.3838 347.906 78.3838 348.535 78.3838C349.163 78.3838 349.676 78.3838 350.073 78.3838C350.995 78.3838 351.811 78.4675 352.523 78.635C353.235 78.7816 353.789 79.127 354.187 79.6713C354.585 80.1947 354.784 81.0217 354.784 82.1523C354.784 83.2619 354.533 84.1412 354.03 84.7902C353.549 85.4392 352.879 85.8998 352.02 86.172C351.183 86.4441 350.22 86.6116 349.131 86.6744C348.608 86.6954 348.105 86.7058 347.624 86.7058C347.142 86.7268 346.64 86.7268 346.116 86.7058C345.635 86.7058 345.08 86.6849 344.452 86.643C343.824 86.6012 343.217 86.5384 342.631 86.4546C342.065 86.3499 341.594 86.2034 341.217 86.015C340.862 85.8056 340.684 85.5334 340.684 85.1985V84.3505Z" fill="#9B9494"/>
<defs>
<linearGradient id="paint0_linear_99_69" x1="0.495361" y1="50.7123" x2="100.275" y2="50.7123" gradientUnits="userSpaceOnUse">
<stop stop-color="#FF0073"/>
<stop offset="0.501326" stop-color="#0B99FB" stop-opacity="0.84"/>
<stop offset="1" stop-color="#15F2DA"/>
</linearGradient>
<linearGradient id="paint1_linear_99_69" x1="0.495361" y1="50.7123" x2="100.275" y2="50.7123" gradientUnits="userSpaceOnUse">
<stop stop-color="#FF0073"/>
<stop offset="0.501326" stop-color="#0B99FB" stop-opacity="0.84"/>
<stop offset="1" stop-color="#15F2DA"/>
</linearGradient>
<linearGradient id="paint2_linear_99_69" x1="0.495361" y1="50.7123" x2="100.275" y2="50.7123" gradientUnits="userSpaceOnUse">
<stop stop-color="#FF0073"/>
<stop offset="0.501326" stop-color="#0B99FB" stop-opacity="0.84"/>
<stop offset="1" stop-color="#15F2DA"/>
</linearGradient>
<linearGradient id="paint3_linear_99_69" x1="0.495361" y1="50.7123" x2="100.275" y2="50.7123" gradientUnits="userSpaceOnUse">
<stop stop-color="#FF0073"/>
<stop offset="0.501326" stop-color="#0B99FB" stop-opacity="0.84"/>
<stop offset="1" stop-color="#15F2DA"/>
</linearGradient>
<linearGradient id="paint4_linear_99_69" x1="0.495361" y1="50.7123" x2="100.275" y2="50.7123" gradientUnits="userSpaceOnUse">
<stop stop-color="#FF0073"/>
<stop offset="0.501326" stop-color="#0B99FB" stop-opacity="0.84"/>
<stop offset="1" stop-color="#15F2DA"/>
</linearGradient>
<linearGradient id="paint5_linear_99_69" x1="0.495361" y1="50.7123" x2="100.275" y2="50.7123" gradientUnits="userSpaceOnUse">
<stop stop-color="#FF0073"/>
<stop offset="0.501326" stop-color="#0B99FB" stop-opacity="0.84"/>
<stop offset="1" stop-color="#15F2DA"/>
</linearGradient>
<linearGradient id="paint6_linear_99_69" x1="0.495361" y1="50.7123" x2="100.275" y2="50.7123" gradientUnits="userSpaceOnUse">
<stop stop-color="#FF0073"/>
<stop offset="0.501326" stop-color="#0B99FB" stop-opacity="0.84"/>
<stop offset="1" stop-color="#15F2DA"/>
</linearGradient>
<linearGradient id="paint7_linear_99_69" x1="0.495361" y1="50.7123" x2="100.275" y2="50.7123" gradientUnits="userSpaceOnUse">
<stop stop-color="#FF0073"/>
<stop offset="0.501326" stop-color="#0B99FB" stop-opacity="0.84"/>
<stop offset="1" stop-color="#15F2DA"/>
</linearGradient>
<linearGradient id="paint8_linear_99_69" x1="0.495361" y1="50.7123" x2="100.275" y2="50.7123" gradientUnits="userSpaceOnUse">
<stop stop-color="#FF0073"/>
<stop offset="0.501326" stop-color="#0B99FB" stop-opacity="0.84"/>
<stop offset="1" stop-color="#15F2DA"/>
</linearGradient>
<linearGradient id="paint9_linear_99_69" x1="0.495361" y1="50.7123" x2="100.275" y2="50.7123" gradientUnits="userSpaceOnUse">
<stop stop-color="#FF0073"/>
<stop offset="0.501326" stop-color="#0B99FB" stop-opacity="0.84"/>
<stop offset="1" stop-color="#15F2DA"/>
</linearGradient>
</defs>
</svg>
